<svg xmlns="http://www.w3.org/2000/svg" xmlns:xlink="http://www.w3.org/1999/xlink" width="423" zoomAndPan="magnify" viewBox="0 0 317.25 110.249996" height="147" preserveAspectRatio="xMidYMid meet" version="1.0"><defs><g/><clipPath id="48800a25d0"><path d="M 135.296875 0.664062 L 209 0.664062 L 209 108.679688 L 135.296875 108.679688 Z M 135.296875 0.664062 " clip-rule="nonzero"/></clipPath></defs><g clip-path="url(#48800a25d0)"><path fill="#ffffff" d="M 182.375 0.679688 L 196.261719 0.679688 C 197.847656 0.679688 199.132812 1.957031 199.140625 3.542969 C 199.140625 3.550781 199.140625 3.558594 199.140625 3.570312 L 199.796875 12.957031 C 199.8125 13.160156 199.953125 13.332031 200.148438 13.382812 C 203.140625 14.164062 206.007812 15.261719 208.703125 16.640625 C 208.707031 16.640625 208.707031 16.640625 208.710938 16.640625 C 208.96875 16.777344 209.042969 17.109375 208.867188 17.339844 L 202.292969 25.972656 C 202.160156 26.144531 201.925781 26.207031 201.730469 26.121094 C 200.605469 25.628906 199.449219 25.207031 198.261719 24.851562 C 196.746094 24.398438 195.179688 24.054688 193.574219 23.835938 C 192.609375 23.703125 191.632812 23.617188 190.644531 23.574219 C 190.207031 23.558594 189.761719 23.546875 189.316406 23.546875 C 188.464844 23.546875 187.617188 23.582031 186.78125 23.648438 C 177.664062 24.382812 169.65625 29.042969 164.449219 35.9375 C 160.511719 41.152344 158.179688 47.640625 158.179688 54.671875 C 158.179688 71.863281 172.121094 85.796875 189.316406 85.796875 C 193.730469 85.796875 197.925781 84.878906 201.730469 83.226562 C 201.929688 83.140625 202.160156 83.203125 202.292969 83.375 L 202.910156 84.183594 L 208.863281 92 C 209.039062 92.234375 208.964844 92.570312 208.703125 92.703125 C 208.671875 92.722656 208.640625 92.738281 208.609375 92.753906 C 208.566406 92.777344 208.527344 92.796875 208.484375 92.816406 C 207.128906 93.5 205.734375 94.109375 204.304688 94.644531 C 202.949219 95.152344 201.566406 95.59375 200.148438 95.960938 C 199.953125 96.011719 199.8125 96.183594 199.796875 96.386719 L 199.140625 105.777344 C 199.140625 105.785156 199.140625 105.792969 199.140625 105.800781 C 199.132812 107.386719 197.847656 108.667969 196.261719 108.667969 L 182.375 108.667969 C 180.789062 108.667969 179.503906 107.386719 179.5 105.800781 C 179.5 105.792969 179.496094 105.785156 179.496094 105.777344 L 178.839844 96.386719 C 178.824219 96.183594 178.683594 96.011719 178.488281 95.960938 C 174.683594 94.96875 171.082031 93.460938 167.769531 91.523438 C 167.59375 91.417969 167.375 91.4375 167.21875 91.570312 L 160.109375 97.75 C 160.105469 97.757812 160.097656 97.761719 160.09375 97.769531 C 158.96875 98.882812 157.152344 98.878906 156.03125 97.757812 L 150.046875 91.777344 L 146.210938 87.945312 C 145.089844 86.824219 145.089844 85.007812 146.203125 83.886719 C 146.210938 83.878906 146.214844 83.875 146.21875 83.867188 L 152.402344 76.761719 C 152.535156 76.609375 152.554688 76.386719 152.453125 76.210938 C 150.511719 72.898438 149.003906 69.300781 148.007812 65.5 C 147.957031 65.300781 147.789062 65.160156 147.585938 65.144531 L 138.191406 64.492188 C 138.183594 64.488281 138.175781 64.488281 138.167969 64.488281 C 136.582031 64.480469 135.300781 63.195312 135.300781 61.613281 L 135.300781 47.734375 C 135.300781 46.148438 136.582031 44.863281 138.167969 44.855469 C 138.175781 44.855469 138.183594 44.855469 138.191406 44.855469 L 147.585938 44.199219 C 147.789062 44.183594 147.957031 44.042969 148.007812 43.847656 C 149.003906 40.042969 150.511719 36.445312 152.453125 33.132812 C 152.554688 32.957031 152.535156 32.738281 152.402344 32.585938 L 151.359375 31.386719 L 146.21875 25.476562 C 146.214844 25.472656 146.210938 25.464844 146.203125 25.460938 C 145.089844 24.335938 145.089844 22.519531 146.210938 21.398438 L 150.046875 17.566406 L 156.03125 11.585938 C 157.152344 10.464844 158.96875 10.460938 160.09375 11.578125 C 160.097656 11.582031 160.105469 11.589844 160.109375 11.59375 L 167.21875 17.773438 C 167.375 17.90625 167.59375 17.925781 167.769531 17.824219 C 170.632812 16.148438 173.707031 14.792969 176.945312 13.816406 C 177.457031 13.664062 177.96875 13.515625 178.488281 13.382812 C 178.683594 13.332031 178.824219 13.160156 178.839844 12.957031 L 178.9375 11.566406 L 179.019531 10.40625 L 179.261719 6.925781 L 179.496094 3.570312 C 179.496094 3.558594 179.5 3.550781 179.5 3.542969 C 179.503906 1.957031 180.789062 0.679688 182.375 0.679688 " fill-opacity="1" fill-rule="nonzero"/></g><g fill="#ffffff" fill-opacity="1"><g transform="translate(168.312962, 67.035459)"><g><path d="M 16.257812 -9.976562 C 15.675781 -10.933594 15.09375 -11.71875 14.511719 -12.273438 C 14.6875 -12.503906 14.859375 -12.738281 15.066406 -13.027344 C 15.296875 -13.40625 15.558594 -13.84375 15.851562 -14.335938 L 20.648438 -22.769531 C 20.734375 -22.976562 20.765625 -23.207031 20.734375 -23.46875 C 20.648438 -23.789062 20.414062 -23.964844 20.066406 -23.964844 L 17.1875 -23.964844 C 16.867188 -23.964844 16.664062 -23.90625 16.546875 -23.789062 C 16.429688 -23.703125 16.316406 -23.585938 16.226562 -23.382812 L 11.835938 -15.617188 C 11.660156 -15.328125 11.488281 -15.09375 11.34375 -14.890625 C 11.195312 -14.714844 11.023438 -14.570312 10.875 -14.484375 C 10.703125 -14.394531 10.5 -14.335938 10.265625 -14.308594 C 10.035156 -14.28125 9.714844 -14.25 9.335938 -14.25 L 6.660156 -14.25 L 6.660156 -22.945312 C 6.660156 -23.875 6.078125 -23.964844 5.84375 -23.964844 L 3.171875 -23.964844 C 2.9375 -23.964844 2.328125 -23.875 2.328125 -22.945312 L 2.328125 -0.988281 C 2.328125 -0.0859375 2.9375 0.0273438 3.171875 0.0273438 L 5.84375 0.0273438 C 6.078125 0.0273438 6.660156 -0.0859375 6.660156 -0.988281 L 6.660156 -9.945312 L 9.597656 -9.945312 C 10.296875 -9.945312 10.820312 -9.859375 11.167969 -9.65625 C 11.488281 -9.480469 11.808594 -9.101562 12.128906 -8.519531 L 16.664062 -0.550781 C 16.75 -0.378906 16.867188 -0.234375 16.984375 -0.144531 C 17.101562 -0.0273438 17.304688 0.0273438 17.59375 0.0273438 L 20.734375 0.0273438 C 21.144531 0.0273438 21.375 -0.203125 21.40625 -0.582031 C 21.433594 -0.871094 21.40625 -1.105469 21.289062 -1.25 Z M 16.257812 -9.976562 "/></g></g></g><g fill="#ffffff" fill-opacity="1"><g transform="translate(193.52474, 67.035459)"><g><path d="M 17.914062 -21.257812 C 17.855469 -21.40625 17.796875 -21.578125 17.738281 -21.695312 C 17.273438 -23.207031 15.878906 -24.285156 14.28125 -24.285156 C 13.550781 -24.285156 12.855469 -24.082031 12.273438 -23.671875 C 12.097656 -23.585938 11.953125 -23.46875 11.835938 -23.382812 C 11.398438 -23.003906 10.964844 -22.304688 10.558594 -21.257812 L 2.441406 -1.105469 C 2.355469 -0.84375 2.328125 -0.582031 2.382812 -0.40625 C 2.414062 -0.234375 2.558594 0.0273438 3.023438 0.0273438 L 6.222656 0.0273438 C 6.601562 0.0273438 6.890625 -0.203125 7.039062 -0.582031 L 8.695312 -4.742188 L 15.066406 -4.742188 C 15.382812 -4.742188 15.675781 -4.886719 15.820312 -5.148438 C 15.996094 -5.378906 16.023438 -5.699219 15.9375 -5.992188 L 14.890625 -8.578125 C 14.746094 -8.929688 14.425781 -9.160156 14.046875 -9.160156 L 10.441406 -9.160156 L 14.164062 -18.582031 C 14.191406 -18.640625 14.222656 -18.671875 14.222656 -18.671875 L 14.335938 -18.671875 C 14.335938 -18.671875 14.335938 -18.671875 14.367188 -18.613281 L 21.578125 -0.609375 C 21.722656 -0.203125 22.015625 0.0273438 22.421875 0.0273438 L 25.535156 0.0273438 C 26 0.0273438 26.117188 -0.261719 26.175781 -0.40625 C 26.230469 -0.582031 26.203125 -0.84375 26.085938 -1.105469 Z M 17.914062 -21.257812 "/></g></g></g><g fill="#ffffff" fill-opacity="1"><g transform="translate(223.534609, 67.035459)"><g><path d="M 22.160156 -17.011719 C 22.160156 -16.984375 22.160156 -16.953125 22.160156 -16.925781 C 22.160156 -16.898438 22.160156 -16.867188 22.160156 -16.839844 Z M 22.714844 -1.25 L 17.625 -9.976562 C 19.050781 -10.148438 20.152344 -10.761719 20.882812 -11.75 C 21.695312 -12.941406 22.132812 -14.65625 22.160156 -16.925781 C 22.132812 -19.195312 21.695312 -20.910156 20.882812 -22.101562 C 20.007812 -23.351562 18.554688 -23.964844 16.578125 -23.964844 L 3.171875 -23.964844 C 2.910156 -23.964844 2.328125 -23.875 2.328125 -22.945312 L 2.328125 -20.648438 C 2.328125 -19.746094 2.910156 -19.660156 3.171875 -19.660156 L 15.820312 -19.660156 C 16.578125 -19.660156 17.070312 -19.457031 17.363281 -19.019531 C 17.683594 -18.582031 17.828125 -17.886719 17.828125 -16.925781 C 17.828125 -15.964844 17.683594 -15.269531 17.363281 -14.832031 C 17.070312 -14.394531 16.578125 -14.191406 15.820312 -14.191406 L 3.171875 -14.191406 C 2.910156 -14.191406 2.328125 -14.105469 2.328125 -13.203125 L 2.328125 -0.988281 C 2.328125 -0.0859375 2.910156 0.0273438 3.171875 0.0273438 L 5.816406 0.0273438 C 6.078125 0.0273438 6.628906 -0.0859375 6.628906 -0.988281 L 6.628906 -9.886719 L 12.765625 -9.886719 L 18.03125 -0.550781 C 18.148438 -0.378906 18.234375 -0.234375 18.351562 -0.144531 C 18.496094 -0.0273438 18.699219 0.0273438 18.960938 0.0273438 L 22.160156 0.0273438 C 22.507812 0.0273438 22.769531 -0.203125 22.828125 -0.550781 C 22.859375 -0.84375 22.828125 -1.074219 22.714844 -1.25 Z M 22.714844 -1.25 "/></g></g></g><g fill="#ffffff" fill-opacity="1"><g transform="translate(250.171275, 67.035459)"><g><path d="M 19.804688 -5.207031 L 9.566406 -5.207031 C 8.957031 -5.207031 8.464844 -5.292969 8.054688 -5.410156 C 7.675781 -5.554688 7.414062 -5.757812 7.183594 -6.050781 C 6.949219 -6.367188 6.777344 -6.804688 6.6875 -7.359375 C 6.660156 -7.503906 6.660156 -7.707031 6.628906 -7.851562 C 6.628906 -7.851562 6.660156 -9.945312 6.6875 -9.945312 L 19.6875 -9.945312 C 19.921875 -9.945312 20.503906 -10.0625 20.503906 -10.964844 L 20.503906 -13.261719 C 20.503906 -14.164062 19.921875 -14.25 19.6875 -14.25 L 4.683594 -14.222656 C 3.839844 -14.164062 3.113281 -13.726562 2.703125 -13 C 2.558594 -12.765625 2.441406 -12.535156 2.382812 -12.273438 L 2.328125 -8.609375 L 2.328125 -8.464844 C 2.355469 -7.097656 2.5 -5.933594 2.703125 -4.972656 C 2.964844 -3.808594 3.402344 -2.851562 3.957031 -2.121094 C 4.535156 -1.367188 5.292969 -0.84375 6.222656 -0.523438 C 7.125 -0.175781 8.203125 -0.0273438 9.480469 -0.0273438 L 19.804688 -0.0273438 C 20.066406 -0.0273438 20.648438 -0.117188 20.648438 -1.019531 L 20.648438 -4.21875 C 20.648438 -5.117188 20.066406 -5.207031 19.804688 -5.207031 Z M 19.835938 -24.023438 L 3.113281 -24.023438 C 2.878906 -24.023438 2.328125 -23.90625 2.328125 -22.976562 L 2.328125 -20.707031 C 2.328125 -19.804688 2.878906 -19.71875 3.113281 -19.71875 L 19.835938 -19.6875 C 20.066406 -19.6875 20.648438 -19.804688 20.648438 -20.707031 L 20.648438 -23.003906 C 20.648438 -23.90625 20.066406 -24.023438 19.835938 -24.023438 Z M 19.835938 -24.023438 "/></g></g></g><g fill="#ffffff" fill-opacity="1"><g transform="translate(211.29149, 85.64825)"><g><path d="M 7.679688 -2.019531 L 3.710938 -2.019531 C 3.472656 -2.019531 3.28125 -2.050781 3.125 -2.097656 C 2.976562 -2.152344 2.875 -2.234375 2.785156 -2.347656 C 2.695312 -2.46875 2.628906 -2.640625 2.59375 -2.855469 C 2.582031 -2.910156 2.582031 -2.988281 2.570312 -3.046875 C 2.570312 -3.046875 2.582031 -3.855469 2.59375 -3.855469 L 7.636719 -3.855469 C 7.726562 -3.855469 7.953125 -3.902344 7.953125 -4.253906 L 7.953125 -5.144531 C 7.953125 -5.492188 7.726562 -5.527344 7.636719 -5.527344 L 1.816406 -5.515625 C 1.488281 -5.492188 1.207031 -5.324219 1.050781 -5.042969 C 0.992188 -4.953125 0.949219 -4.859375 0.925781 -4.757812 L 0.902344 -3.339844 L 0.902344 -3.28125 C 0.914062 -2.753906 0.96875 -2.300781 1.050781 -1.929688 C 1.152344 -1.476562 1.320312 -1.105469 1.535156 -0.824219 C 1.757812 -0.53125 2.050781 -0.328125 2.414062 -0.203125 C 2.761719 -0.0664062 3.179688 -0.0117188 3.675781 -0.0117188 L 7.679688 -0.0117188 C 7.78125 -0.0117188 8.007812 -0.046875 8.007812 -0.394531 L 8.007812 -1.636719 C 8.007812 -1.984375 7.78125 -2.019531 7.679688 -2.019531 Z M 7.691406 -9.316406 L 1.207031 -9.316406 C 1.117188 -9.316406 0.902344 -9.269531 0.902344 -8.910156 L 0.902344 -8.03125 C 0.902344 -7.679688 1.117188 -7.648438 1.207031 -7.648438 L 7.691406 -7.636719 C 7.78125 -7.636719 8.007812 -7.679688 8.007812 -8.03125 L 8.007812 -8.921875 C 8.007812 -9.269531 7.78125 -9.316406 7.691406 -9.316406 Z M 7.691406 -9.316406 "/></g></g></g><g fill="#ffffff" fill-opacity="1"><g transform="translate(220.760267, 85.64825)"><g><path d="M 8.886719 -9.292969 L 7.882812 -9.292969 C 7.78125 -9.292969 7.566406 -9.261719 7.566406 -8.898438 L 7.566406 -2.121094 C 7.566406 -2.109375 7.566406 -2.109375 7.566406 -2.097656 L 7.511719 -2.097656 C 7.5 -2.097656 7.488281 -2.097656 7.476562 -2.132812 L 3.914062 -8.46875 C 3.824219 -8.640625 3.746094 -8.773438 3.664062 -8.875 C 3.585938 -8.988281 3.507812 -9.078125 3.429688 -9.136719 C 3.339844 -9.203125 3.238281 -9.25 3.113281 -9.269531 C 3 -9.28125 2.863281 -9.292969 2.71875 -9.292969 L 1.871094 -9.292969 C 1.546875 -9.292969 1.296875 -9.179688 1.140625 -8.976562 C 0.980469 -8.761719 0.902344 -8.390625 0.902344 -7.839844 L 0.902344 -0.382812 C 0.902344 -0.0351562 1.128906 0.0117188 1.230469 0.0117188 L 2.234375 0.0117188 C 2.335938 0.0117188 2.550781 -0.0351562 2.550781 -0.382812 L 2.550781 -7.160156 C 2.550781 -7.171875 2.550781 -7.183594 2.550781 -7.183594 L 2.605469 -7.183594 C 2.605469 -7.183594 2.617188 -7.183594 2.640625 -7.152344 L 6.214844 -0.8125 C 6.304688 -0.632812 6.394531 -0.496094 6.472656 -0.394531 C 6.554688 -0.28125 6.632812 -0.203125 6.722656 -0.148438 C 6.8125 -0.078125 6.914062 -0.046875 7.027344 -0.0234375 C 7.128906 0 7.253906 0.0117188 7.410156 0.0117188 L 8.234375 0.0117188 C 8.5625 0.0117188 8.808594 -0.101562 8.964844 -0.316406 C 9.125 -0.519531 9.203125 -0.890625 9.203125 -1.445312 L 9.203125 -8.898438 C 9.203125 -9.261719 8.976562 -9.292969 8.886719 -9.292969 Z M 8.886719 -9.292969 "/></g></g></g><g fill="#ffffff" fill-opacity="1"><g transform="translate(231.423916, 85.64825)"><g><path d="M 8.539062 -9.292969 L 3.6875 -9.292969 C 3.191406 -9.292969 2.761719 -9.226562 2.414062 -9.101562 C 2.0625 -8.964844 1.757812 -8.753906 1.546875 -8.46875 C 1.320312 -8.175781 1.152344 -7.816406 1.050781 -7.363281 C 0.949219 -6.925781 0.902344 -6.382812 0.902344 -5.761719 L 0.902344 -3.53125 C 0.902344 -2.898438 0.949219 -2.355469 1.050781 -1.90625 C 1.152344 -1.464844 1.320312 -1.09375 1.546875 -0.800781 C 1.769531 -0.519531 2.0625 -0.304688 2.414062 -0.179688 C 2.761719 -0.0546875 3.191406 0.0117188 3.6875 0.0117188 L 7.546875 0.0117188 C 7.960938 0.0117188 8.289062 -0.15625 8.515625 -0.484375 C 8.730469 -0.800781 8.84375 -1.332031 8.84375 -2.085938 L 8.84375 -5.109375 C 8.84375 -5.539062 8.59375 -5.605469 8.449219 -5.605469 L 4.457031 -5.605469 C 4.363281 -5.605469 4.140625 -5.558594 4.140625 -5.199219 L 4.140625 -4.34375 C 4.140625 -3.96875 4.363281 -3.9375 4.457031 -3.9375 L 7.261719 -3.9375 C 7.261719 -3.9375 7.273438 -2.355469 7.273438 -2.355469 C 7.273438 -2.007812 7.21875 -1.859375 7.171875 -1.792969 C 7.117188 -1.703125 7.027344 -1.667969 6.902344 -1.667969 L 3.746094 -1.667969 C 3.507812 -1.667969 3.304688 -1.691406 3.15625 -1.75 C 3.011719 -1.792969 2.910156 -1.871094 2.820312 -1.996094 C 2.742188 -2.109375 2.671875 -2.277344 2.640625 -2.492188 C 2.59375 -2.71875 2.570312 -3 2.570312 -3.339844 L 2.570312 -5.957031 C 2.570312 -6.292969 2.59375 -6.574219 2.640625 -6.800781 C 2.671875 -7.003906 2.742188 -7.171875 2.820312 -7.296875 C 2.910156 -7.410156 3.011719 -7.488281 3.15625 -7.546875 C 3.304688 -7.589844 3.507812 -7.625 3.746094 -7.625 L 8.539062 -7.625 C 8.628906 -7.625 8.855469 -7.660156 8.855469 -8.019531 L 8.855469 -8.898438 C 8.855469 -9.25 8.628906 -9.292969 8.539062 -9.292969 Z M 8.539062 -9.292969 "/></g></g></g><g fill="#ffffff" fill-opacity="1"><g transform="translate(241.738123, 85.64825)"><g><path d="M 2.253906 -9.292969 L 1.21875 -9.292969 C 1.128906 -9.292969 0.902344 -9.25 0.902344 -8.898438 L 0.902344 -0.382812 C 0.902344 -0.0351562 1.128906 0.0117188 1.21875 0.0117188 L 2.253906 0.0117188 C 2.347656 0.0117188 2.570312 -0.0351562 2.570312 -0.382812 L 2.570312 -8.898438 C 2.570312 -9.25 2.347656 -9.292969 2.253906 -9.292969 Z M 2.253906 -9.292969 "/></g></g></g><g fill="#ffffff" fill-opacity="1"><g transform="translate(245.773628, 85.64825)"><g><path d="M 8.886719 -9.292969 L 7.882812 -9.292969 C 7.78125 -9.292969 7.566406 -9.261719 7.566406 -8.898438 L 7.566406 -2.121094 C 7.566406 -2.109375 7.566406 -2.109375 7.566406 -2.097656 L 7.511719 -2.097656 C 7.5 -2.097656 7.488281 -2.097656 7.476562 -2.132812 L 3.914062 -8.46875 C 3.824219 -8.640625 3.746094 -8.773438 3.664062 -8.875 C 3.585938 -8.988281 3.507812 -9.078125 3.429688 -9.136719 C 3.339844 -9.203125 3.238281 -9.25 3.113281 -9.269531 C 3 -9.28125 2.863281 -9.292969 2.71875 -9.292969 L 1.871094 -9.292969 C 1.546875 -9.292969 1.296875 -9.179688 1.140625 -8.976562 C 0.980469 -8.761719 0.902344 -8.390625 0.902344 -7.839844 L 0.902344 -0.382812 C 0.902344 -0.0351562 1.128906 0.0117188 1.230469 0.0117188 L 2.234375 0.0117188 C 2.335938 0.0117188 2.550781 -0.0351562 2.550781 -0.382812 L 2.550781 -7.160156 C 2.550781 -7.171875 2.550781 -7.183594 2.550781 -7.183594 L 2.605469 -7.183594 C 2.605469 -7.183594 2.617188 -7.183594 2.640625 -7.152344 L 6.214844 -0.8125 C 6.304688 -0.632812 6.394531 -0.496094 6.472656 -0.394531 C 6.554688 -0.28125 6.632812 -0.203125 6.722656 -0.148438 C 6.8125 -0.078125 6.914062 -0.046875 7.027344 -0.0234375 C 7.128906 0 7.253906 0.0117188 7.410156 0.0117188 L 8.234375 0.0117188 C 8.5625 0.0117188 8.808594 -0.101562 8.964844 -0.316406 C 9.125 -0.519531 9.203125 -0.890625 9.203125 -1.445312 L 9.203125 -8.898438 C 9.203125 -9.261719 8.976562 -9.292969 8.886719 -9.292969 Z M 8.886719 -9.292969 "/></g></g></g><g fill="#ffffff" fill-opacity="1"><g transform="translate(256.437277, 85.64825)"><g><path d="M 7.679688 -2.019531 L 3.710938 -2.019531 C 3.472656 -2.019531 3.28125 -2.050781 3.125 -2.097656 C 2.976562 -2.152344 2.875 -2.234375 2.785156 -2.347656 C 2.695312 -2.46875 2.628906 -2.640625 2.59375 -2.855469 C 2.582031 -2.910156 2.582031 -2.988281 2.570312 -3.046875 C 2.570312 -3.046875 2.582031 -3.855469 2.59375 -3.855469 L 7.636719 -3.855469 C 7.726562 -3.855469 7.953125 -3.902344 7.953125 -4.253906 L 7.953125 -5.144531 C 7.953125 -5.492188 7.726562 -5.527344 7.636719 -5.527344 L 1.816406 -5.515625 C 1.488281 -5.492188 1.207031 -5.324219 1.050781 -5.042969 C 0.992188 -4.953125 0.949219 -4.859375 0.925781 -4.757812 L 0.902344 -3.339844 L 0.902344 -3.28125 C 0.914062 -2.753906 0.96875 -2.300781 1.050781 -1.929688 C 1.152344 -1.476562 1.320312 -1.105469 1.535156 -0.824219 C 1.757812 -0.53125 2.050781 -0.328125 2.414062 -0.203125 C 2.761719 -0.0664062 3.179688 -0.0117188 3.675781 -0.0117188 L 7.679688 -0.0117188 C 7.78125 -0.0117188 8.007812 -0.046875 8.007812 -0.394531 L 8.007812 -1.636719 C 8.007812 -1.984375 7.78125 -2.019531 7.679688 -2.019531 Z M 7.691406 -9.316406 L 1.207031 -9.316406 C 1.117188 -9.316406 0.902344 -9.269531 0.902344 -8.910156 L 0.902344 -8.03125 C 0.902344 -7.679688 1.117188 -7.648438 1.207031 -7.648438 L 7.691406 -7.636719 C 7.78125 -7.636719 8.007812 -7.679688 8.007812 -8.03125 L 8.007812 -8.921875 C 8.007812 -9.269531 7.78125 -9.316406 7.691406 -9.316406 Z M 7.691406 -9.316406 "/></g></g></g><g fill="#ffffff" fill-opacity="1"><g transform="translate(265.906054, 85.64825)"><g><path d="M 7.679688 -2.019531 L 3.710938 -2.019531 C 3.472656 -2.019531 3.28125 -2.050781 3.125 -2.097656 C 2.976562 -2.152344 2.875 -2.234375 2.785156 -2.347656 C 2.695312 -2.46875 2.628906 -2.640625 2.59375 -2.855469 C 2.582031 -2.910156 2.582031 -2.988281 2.570312 -3.046875 C 2.570312 -3.046875 2.582031 -3.855469 2.59375 -3.855469 L 7.636719 -3.855469 C 7.726562 -3.855469 7.953125 -3.902344 7.953125 -4.253906 L 7.953125 -5.144531 C 7.953125 -5.492188 7.726562 -5.527344 7.636719 -5.527344 L 1.816406 -5.515625 C 1.488281 -5.492188 1.207031 -5.324219 1.050781 -5.042969 C 0.992188 -4.953125 0.949219 -4.859375 0.925781 -4.757812 L 0.902344 -3.339844 L 0.902344 -3.28125 C 0.914062 -2.753906 0.96875 -2.300781 1.050781 -1.929688 C 1.152344 -1.476562 1.320312 -1.105469 1.535156 -0.824219 C 1.757812 -0.53125 2.050781 -0.328125 2.414062 -0.203125 C 2.761719 -0.0664062 3.179688 -0.0117188 3.675781 -0.0117188 L 7.679688 -0.0117188 C 7.78125 -0.0117188 8.007812 -0.046875 8.007812 -0.394531 L 8.007812 -1.636719 C 8.007812 -1.984375 7.78125 -2.019531 7.679688 -2.019531 Z M 7.691406 -9.316406 L 1.207031 -9.316406 C 1.117188 -9.316406 0.902344 -9.269531 0.902344 -8.910156 L 0.902344 -8.03125 C 0.902344 -7.679688 1.117188 -7.648438 1.207031 -7.648438 L 7.691406 -7.636719 C 7.78125 -7.636719 8.007812 -7.679688 8.007812 -8.03125 L 8.007812 -8.921875 C 8.007812 -9.269531 7.78125 -9.316406 7.691406 -9.316406 Z M 7.691406 -9.316406 "/></g></g></g><g fill="#ffffff" fill-opacity="1"><g transform="translate(275.374831, 85.64825)"><g><path d="M 8.59375 -6.597656 C 8.59375 -6.585938 8.59375 -6.574219 8.59375 -6.5625 C 8.59375 -6.554688 8.59375 -6.542969 8.59375 -6.53125 Z M 8.808594 -0.484375 L 6.835938 -3.867188 C 7.386719 -3.9375 7.816406 -4.171875 8.097656 -4.554688 C 8.414062 -5.019531 8.582031 -5.683594 8.59375 -6.5625 C 8.582031 -7.445312 8.414062 -8.109375 8.097656 -8.570312 C 7.757812 -9.058594 7.195312 -9.292969 6.429688 -9.292969 L 1.230469 -9.292969 C 1.128906 -9.292969 0.902344 -9.261719 0.902344 -8.898438 L 0.902344 -8.007812 C 0.902344 -7.660156 1.128906 -7.625 1.230469 -7.625 L 6.136719 -7.625 C 6.429688 -7.625 6.621094 -7.546875 6.734375 -7.375 C 6.859375 -7.207031 6.914062 -6.9375 6.914062 -6.5625 C 6.914062 -6.191406 6.859375 -5.921875 6.734375 -5.753906 C 6.621094 -5.582031 6.429688 -5.503906 6.136719 -5.503906 L 1.230469 -5.503906 C 1.128906 -5.503906 0.902344 -5.46875 0.902344 -5.121094 L 0.902344 -0.382812 C 0.902344 -0.0351562 1.128906 0.0117188 1.230469 0.0117188 L 2.253906 0.0117188 C 2.355469 0.0117188 2.570312 -0.0351562 2.570312 -0.382812 L 2.570312 -3.835938 L 4.953125 -3.835938 L 6.992188 -0.214844 C 7.039062 -0.148438 7.070312 -0.0898438 7.117188 -0.0546875 C 7.171875 -0.0117188 7.253906 0.0117188 7.355469 0.0117188 L 8.59375 0.0117188 C 8.730469 0.0117188 8.832031 -0.078125 8.855469 -0.214844 C 8.863281 -0.328125 8.855469 -0.417969 8.808594 -0.484375 Z M 8.808594 -0.484375 "/></g></g></g><g fill="#ffffff" fill-opacity="1"><g transform="translate(285.700312, 85.64825)"><g><path d="M 2.253906 -9.292969 L 1.21875 -9.292969 C 1.128906 -9.292969 0.902344 -9.25 0.902344 -8.898438 L 0.902344 -0.382812 C 0.902344 -0.0351562 1.128906 0.0117188 1.21875 0.0117188 L 2.253906 0.0117188 C 2.347656 0.0117188 2.570312 -0.0351562 2.570312 -0.382812 L 2.570312 -8.898438 C 2.570312 -9.25 2.347656 -9.292969 2.253906 -9.292969 Z M 2.253906 -9.292969 "/></g></g></g><g fill="#ffffff" fill-opacity="1"><g transform="translate(289.735818, 85.64825)"><g><path d="M 8.886719 -9.292969 L 7.882812 -9.292969 C 7.78125 -9.292969 7.566406 -9.261719 7.566406 -8.898438 L 7.566406 -2.121094 C 7.566406 -2.109375 7.566406 -2.109375 7.566406 -2.097656 L 7.511719 -2.097656 C 7.5 -2.097656 7.488281 -2.097656 7.476562 -2.132812 L 3.914062 -8.46875 C 3.824219 -8.640625 3.746094 -8.773438 3.664062 -8.875 C 3.585938 -8.988281 3.507812 -9.078125 3.429688 -9.136719 C 3.339844 -9.203125 3.238281 -9.25 3.113281 -9.269531 C 3 -9.28125 2.863281 -9.292969 2.71875 -9.292969 L 1.871094 -9.292969 C 1.546875 -9.292969 1.296875 -9.179688 1.140625 -8.976562 C 0.980469 -8.761719 0.902344 -8.390625 0.902344 -7.839844 L 0.902344 -0.382812 C 0.902344 -0.0351562 1.128906 0.0117188 1.230469 0.0117188 L 2.234375 0.0117188 C 2.335938 0.0117188 2.550781 -0.0351562 2.550781 -0.382812 L 2.550781 -7.160156 C 2.550781 -7.171875 2.550781 -7.183594 2.550781 -7.183594 L 2.605469 -7.183594 C 2.605469 -7.183594 2.617188 -7.183594 2.640625 -7.152344 L 6.214844 -0.8125 C 6.304688 -0.632812 6.394531 -0.496094 6.472656 -0.394531 C 6.554688 -0.28125 6.632812 -0.203125 6.722656 -0.148438 C 6.8125 -0.078125 6.914062 -0.046875 7.027344 -0.0234375 C 7.128906 0 7.253906 0.0117188 7.410156 0.0117188 L 8.234375 0.0117188 C 8.5625 0.0117188 8.808594 -0.101562 8.964844 -0.316406 C 9.125 -0.519531 9.203125 -0.890625 9.203125 -1.445312 L 9.203125 -8.898438 C 9.203125 -9.261719 8.976562 -9.292969 8.886719 -9.292969 Z M 8.886719 -9.292969 "/></g></g></g><g fill="#ffffff" fill-opacity="1"><g transform="translate(300.399466, 85.64825)"><g><path d="M 8.539062 -9.292969 L 3.6875 -9.292969 C 3.191406 -9.292969 2.761719 -9.226562 2.414062 -9.101562 C 2.0625 -8.964844 1.757812 -8.753906 1.546875 -8.46875 C 1.320312 -8.175781 1.152344 -7.816406 1.050781 -7.363281 C 0.949219 -6.925781 0.902344 -6.382812 0.902344 -5.761719 L 0.902344 -3.53125 C 0.902344 -2.898438 0.949219 -2.355469 1.050781 -1.90625 C 1.152344 -1.464844 1.320312 -1.09375 1.546875 -0.800781 C 1.769531 -0.519531 2.0625 -0.304688 2.414062 -0.179688 C 2.761719 -0.0546875 3.191406 0.0117188 3.6875 0.0117188 L 7.546875 0.0117188 C 7.960938 0.0117188 8.289062 -0.15625 8.515625 -0.484375 C 8.730469 -0.800781 8.84375 -1.332031 8.84375 -2.085938 L 8.84375 -5.109375 C 8.84375 -5.539062 8.59375 -5.605469 8.449219 -5.605469 L 4.457031 -5.605469 C 4.363281 -5.605469 4.140625 -5.558594 4.140625 -5.199219 L 4.140625 -4.34375 C 4.140625 -3.96875 4.363281 -3.9375 4.457031 -3.9375 L 7.261719 -3.9375 C 7.261719 -3.9375 7.273438 -2.355469 7.273438 -2.355469 C 7.273438 -2.007812 7.21875 -1.859375 7.171875 -1.792969 C 7.117188 -1.703125 7.027344 -1.667969 6.902344 -1.667969 L 3.746094 -1.667969 C 3.507812 -1.667969 3.304688 -1.691406 3.15625 -1.75 C 3.011719 -1.792969 2.910156 -1.871094 2.820312 -1.996094 C 2.742188 -2.109375 2.671875 -2.277344 2.640625 -2.492188 C 2.59375 -2.71875 2.570312 -3 2.570312 -3.339844 L 2.570312 -5.957031 C 2.570312 -6.292969 2.59375 -6.574219 2.640625 -6.800781 C 2.671875 -7.003906 2.742188 -7.171875 2.820312 -7.296875 C 2.910156 -7.410156 3.011719 -7.488281 3.15625 -7.546875 C 3.304688 -7.589844 3.507812 -7.625 3.746094 -7.625 L 8.539062 -7.625 C 8.628906 -7.625 8.855469 -7.660156 8.855469 -8.019531 L 8.855469 -8.898438 C 8.855469 -9.25 8.628906 -9.292969 8.539062 -9.292969 Z M 8.539062 -9.292969 "/></g></g></g><g fill="#ffffff" fill-opacity="1"><g transform="translate(9.386634, 66.807996)"><g><path d="M 21.996094 -23.945312 L 9.503906 -23.945312 C 8.222656 -23.945312 7.121094 -23.769531 6.21875 -23.449219 C 5.316406 -23.101562 4.53125 -22.550781 3.980469 -21.824219 C 3.398438 -21.066406 2.964844 -20.136719 2.703125 -18.976562 C 2.441406 -17.839844 2.324219 -16.445312 2.324219 -14.847656 L 2.324219 -9.09375 C 2.324219 -7.46875 2.441406 -6.074219 2.703125 -4.910156 C 2.964844 -3.777344 3.398438 -2.820312 3.980469 -2.0625 C 4.5625 -1.335938 5.316406 -0.785156 6.21875 -0.464844 C 7.121094 -0.144531 8.222656 0.0273438 9.503906 0.0273438 L 19.441406 0.0273438 C 20.515625 0.0273438 21.359375 -0.40625 21.9375 -1.25 C 22.492188 -2.0625 22.78125 -3.429688 22.78125 -5.375 L 22.78125 -13.164062 C 22.78125 -14.265625 22.140625 -14.441406 21.765625 -14.441406 L 11.476562 -14.441406 C 11.246094 -14.441406 10.664062 -14.324219 10.664062 -13.394531 L 10.664062 -11.1875 C 10.664062 -10.226562 11.246094 -10.140625 11.476562 -10.140625 L 18.714844 -10.140625 C 18.714844 -10.140625 18.742188 -6.074219 18.742188 -6.074219 C 18.742188 -5.171875 18.597656 -4.792969 18.480469 -4.621094 C 18.335938 -4.386719 18.101562 -4.300781 17.785156 -4.300781 L 9.648438 -4.300781 C 9.035156 -4.300781 8.515625 -4.359375 8.136719 -4.503906 C 7.757812 -4.621094 7.496094 -4.824219 7.265625 -5.144531 C 7.0625 -5.433594 6.886719 -5.871094 6.800781 -6.421875 C 6.683594 -7.003906 6.625 -7.730469 6.625 -8.601562 L 6.625 -15.34375 C 6.625 -16.214844 6.683594 -16.941406 6.800781 -17.523438 C 6.886719 -18.046875 7.0625 -18.480469 7.265625 -18.800781 C 7.496094 -19.089844 7.757812 -19.292969 8.136719 -19.441406 C 8.515625 -19.554688 9.035156 -19.644531 9.648438 -19.644531 L 21.996094 -19.644531 C 22.230469 -19.644531 22.8125 -19.730469 22.8125 -20.660156 L 22.8125 -22.925781 C 22.8125 -23.828125 22.230469 -23.945312 21.996094 -23.945312 Z M 21.996094 -23.945312 "/></g></g></g><g fill="#ffffff" fill-opacity="1"><g transform="translate(35.974906, 66.807996)"><g><path d="M 19.789062 -5.203125 L 9.558594 -5.203125 C 8.949219 -5.203125 8.457031 -5.289062 8.050781 -5.40625 C 7.671875 -5.550781 7.410156 -5.753906 7.175781 -6.042969 C 6.945312 -6.363281 6.769531 -6.800781 6.683594 -7.351562 C 6.65625 -7.496094 6.65625 -7.699219 6.625 -7.847656 C 6.625 -7.847656 6.65625 -9.9375 6.683594 -9.9375 L 19.671875 -9.9375 C 19.90625 -9.9375 20.484375 -10.054688 20.484375 -10.953125 L 20.484375 -13.25 C 20.484375 -14.152344 19.90625 -14.238281 19.671875 -14.238281 L 4.679688 -14.210938 C 3.835938 -14.152344 3.109375 -13.714844 2.703125 -12.988281 C 2.558594 -12.757812 2.441406 -12.523438 2.382812 -12.261719 L 2.324219 -8.601562 L 2.324219 -8.457031 C 2.355469 -7.089844 2.5 -5.929688 2.703125 -4.96875 C 2.964844 -3.804688 3.398438 -2.847656 3.953125 -2.121094 C 4.53125 -1.367188 5.289062 -0.84375 6.21875 -0.523438 C 7.121094 -0.175781 8.195312 -0.0273438 9.472656 -0.0273438 L 19.789062 -0.0273438 C 20.050781 -0.0273438 20.632812 -0.117188 20.632812 -1.015625 L 20.632812 -4.214844 C 20.632812 -5.113281 20.050781 -5.203125 19.789062 -5.203125 Z M 19.816406 -24.003906 L 3.109375 -24.003906 C 2.875 -24.003906 2.324219 -23.886719 2.324219 -22.957031 L 2.324219 -20.6875 C 2.324219 -19.789062 2.875 -19.703125 3.109375 -19.703125 L 19.816406 -19.671875 C 20.050781 -19.671875 20.632812 -19.789062 20.632812 -20.6875 L 20.632812 -22.984375 C 20.632812 -23.886719 20.050781 -24.003906 19.816406 -24.003906 Z M 19.816406 -24.003906 "/></g></g></g><g fill="#ffffff" fill-opacity="1"><g transform="translate(60.383807, 66.807996)"><g><path d="M 19.789062 -5.203125 L 9.558594 -5.203125 C 8.949219 -5.203125 8.457031 -5.289062 8.050781 -5.40625 C 7.671875 -5.550781 7.410156 -5.753906 7.175781 -6.042969 C 6.945312 -6.363281 6.769531 -6.800781 6.683594 -7.351562 C 6.65625 -7.496094 6.65625 -7.699219 6.625 -7.847656 C 6.625 -7.847656 6.65625 -9.9375 6.683594 -9.9375 L 19.671875 -9.9375 C 19.90625 -9.9375 20.484375 -10.054688 20.484375 -10.953125 L 20.484375 -13.25 C 20.484375 -14.152344 19.90625 -14.238281 19.671875 -14.238281 L 4.679688 -14.210938 C 3.835938 -14.152344 3.109375 -13.714844 2.703125 -12.988281 C 2.558594 -12.757812 2.441406 -12.523438 2.382812 -12.261719 L 2.324219 -8.601562 L 2.324219 -8.457031 C 2.355469 -7.089844 2.5 -5.929688 2.703125 -4.96875 C 2.964844 -3.804688 3.398438 -2.847656 3.953125 -2.121094 C 4.53125 -1.367188 5.289062 -0.84375 6.21875 -0.523438 C 7.121094 -0.175781 8.195312 -0.0273438 9.472656 -0.0273438 L 19.789062 -0.0273438 C 20.050781 -0.0273438 20.632812 -0.117188 20.632812 -1.015625 L 20.632812 -4.214844 C 20.632812 -5.113281 20.050781 -5.203125 19.789062 -5.203125 Z M 19.816406 -24.003906 L 3.109375 -24.003906 C 2.875 -24.003906 2.324219 -23.886719 2.324219 -22.957031 L 2.324219 -20.6875 C 2.324219 -19.789062 2.875 -19.703125 3.109375 -19.703125 L 19.816406 -19.671875 C 20.050781 -19.671875 20.632812 -19.789062 20.632812 -20.6875 L 20.632812 -22.984375 C 20.632812 -23.886719 20.050781 -24.003906 19.816406 -24.003906 Z M 19.816406 -24.003906 "/></g></g></g><g fill="#ffffff" fill-opacity="1"><g transform="translate(84.792708, 66.807996)"><g><path d="M 16.242188 -9.96875 C 15.664062 -10.925781 15.082031 -11.710938 14.5 -12.261719 C 14.675781 -12.496094 14.847656 -12.726562 15.050781 -13.019531 C 15.285156 -13.394531 15.546875 -13.832031 15.835938 -14.324219 L 20.632812 -22.753906 C 20.71875 -22.957031 20.746094 -23.1875 20.71875 -23.449219 C 20.632812 -23.769531 20.398438 -23.945312 20.050781 -23.945312 L 17.171875 -23.945312 C 16.855469 -23.945312 16.648438 -23.886719 16.535156 -23.769531 C 16.417969 -23.683594 16.300781 -23.566406 16.214844 -23.363281 L 11.828125 -15.605469 C 11.652344 -15.3125 11.476562 -15.082031 11.332031 -14.878906 C 11.1875 -14.703125 11.011719 -14.558594 10.867188 -14.472656 C 10.695312 -14.382812 10.488281 -14.324219 10.257812 -14.296875 C 10.023438 -14.265625 9.707031 -14.238281 9.328125 -14.238281 L 6.65625 -14.238281 L 6.65625 -22.925781 C 6.65625 -23.855469 6.074219 -23.945312 5.839844 -23.945312 L 3.167969 -23.945312 C 2.933594 -23.945312 2.324219 -23.855469 2.324219 -22.925781 L 2.324219 -0.988281 C 2.324219 -0.0859375 2.933594 0.0273438 3.167969 0.0273438 L 5.839844 0.0273438 C 6.074219 0.0273438 6.65625 -0.0859375 6.65625 -0.988281 L 6.65625 -9.9375 L 9.589844 -9.9375 C 10.285156 -9.9375 10.808594 -9.851562 11.160156 -9.648438 C 11.476562 -9.472656 11.796875 -9.09375 12.117188 -8.515625 L 16.648438 -0.550781 C 16.738281 -0.378906 16.855469 -0.234375 16.96875 -0.144531 C 17.085938 -0.0273438 17.289062 0.0273438 17.582031 0.0273438 L 20.71875 0.0273438 C 21.125 0.0273438 21.359375 -0.203125 21.386719 -0.582031 C 21.414062 -0.871094 21.386719 -1.105469 21.269531 -1.25 Z M 16.242188 -9.96875 "/></g></g></g><g fill="#ffffff" fill-opacity="1"><g transform="translate(109.986178, 66.807996)"><g><path d="M 16.359375 -14.296875 L 7.640625 -14.296875 C 7.207031 -14.296875 6.65625 -14.472656 6.65625 -15.894531 L 6.65625 -18.046875 C 6.65625 -18.566406 6.742188 -18.976562 6.886719 -19.265625 C 7.003906 -19.441406 7.175781 -19.644531 7.671875 -19.644531 L 19.496094 -19.644531 C 19.730469 -19.644531 20.3125 -19.730469 20.3125 -20.632812 L 20.3125 -22.957031 C 20.3125 -23.855469 19.730469 -23.945312 19.496094 -23.945312 L 6.972656 -23.945312 C 5.375 -23.945312 4.214844 -23.421875 3.457031 -22.347656 C 2.703125 -21.300781 2.324219 -19.90625 2.324219 -18.21875 L 2.324219 -16.011719 C 2.324219 -14.007812 2.730469 -12.378906 3.457031 -11.363281 C 4.359375 -10.171875 5.695312 -9.996094 6.914062 -9.996094 L 15.632812 -9.996094 C 16.070312 -9.996094 16.648438 -9.820312 16.648438 -8.398438 L 16.648438 -5.898438 C 16.648438 -5.375 16.5625 -4.96875 16.390625 -4.679688 C 16.273438 -4.503906 16.097656 -4.300781 15.605469 -4.300781 L 3.195312 -4.300781 C 2.933594 -4.300781 2.355469 -4.214844 2.355469 -3.3125 L 2.355469 -0.988281 C 2.355469 -0.0859375 2.933594 0 3.195312 0 L 16.300781 0 C 17.898438 0 19.089844 -0.550781 19.847656 -1.628906 C 20.574219 -2.671875 20.949219 -4.039062 20.949219 -5.722656 L 20.949219 -8.28125 C 20.949219 -10.171875 20.574219 -11.652344 19.816406 -12.699219 C 19.03125 -13.746094 17.871094 -14.296875 16.359375 -14.296875 Z M 16.359375 -14.296875 "/></g></g></g></svg>