<svg width="94" height="34" viewBox="0 0 94 34" fill="none" xmlns="http://www.w3.org/2000/svg">
<path d="M41.6861 12.5083C42.1767 12.5083 42.6631 12.5814 43.1445 12.7274C43.6264 12.8736 44.0653 13.0863 44.4656 13.3692C44.8474 13.6634 45.1567 14.0302 45.3937 14.4685C45.5923 14.8358 45.7077 15.2478 45.7407 15.704L45.7506 15.983V16.6727L45.583 16.8136H43.2585L43.091 16.6727L43.0911 15.988L43.0841 15.822C43.0532 15.4709 42.9184 15.2152 42.6826 15.0459C42.4018 14.8444 42.072 14.7443 41.6861 14.7443C41.3002 14.7443 40.9704 14.8444 40.6896 15.0459C40.4579 15.2122 40.3234 15.4627 40.2896 15.8045L40.2812 15.983L40.2811 23.182L40.288 23.348C40.319 23.699 40.4538 23.9548 40.6896 24.1241C40.9704 24.3256 41.3002 24.4256 41.6861 24.4256C42.072 24.4256 42.4018 24.3256 42.6826 24.1241C42.9143 23.9578 43.0488 23.7072 43.0825 23.3655L43.091 23.187V20.7605H41.4126L41.245 20.6196V18.8952L41.4126 18.7544H45.583L45.7506 18.8952V23.191L45.7408 23.4757C45.708 23.9487 45.5923 24.3644 45.3929 24.7221C45.1554 25.148 44.8453 25.5023 44.4631 25.7835C44.0676 26.0761 43.6278 26.296 43.1445 26.4425C42.6631 26.5885 42.1767 26.6617 41.6861 26.6617C41.1955 26.6617 40.7091 26.5885 40.2277 26.4425C39.7434 26.2957 39.3103 26.0752 38.9348 25.7856C38.5359 25.504 38.2173 25.149 37.9793 24.7221C37.7744 24.3546 37.6579 23.9259 37.6288 23.4367L37.6216 23.187V15.9788L37.6314 15.7052C37.6642 15.2485 37.7797 14.8361 37.9784 14.4685C38.2159 14.0293 38.5338 13.6618 38.9322 13.367C39.3126 13.0872 39.7448 12.8738 40.2277 12.7274C40.7091 12.5814 41.1955 12.5083 41.6861 12.5083ZM78.3068 12.5083C79.4451 12.5083 80.3779 12.8233 81.0942 13.4523C81.4436 13.7594 81.7173 14.123 81.9151 14.5419C82.0734 14.8773 82.1683 15.2357 82.1999 15.6165L82.2118 15.9063V16.6727L82.0442 16.8136H79.7197L79.5521 16.6727L79.5523 16.0281L79.5422 15.8478C79.5094 15.5687 79.3955 15.3242 79.1997 15.1111C78.9735 14.8651 78.6733 14.7443 78.284 14.7443C77.7633 14.7443 77.4382 14.8715 77.2811 15.1199C77.1345 15.3515 77.048 15.6385 77.0233 15.9813L77.0158 16.1937L77.0157 23.1626L77.0239 23.3497C77.0504 23.6396 77.1417 23.885 77.2969 24.088C77.4676 24.3112 77.7819 24.4256 78.2612 24.4256C78.3958 24.4256 78.5428 24.4055 78.7024 24.3647C78.8564 24.3252 79.0009 24.2603 79.1298 24.1738C79.2469 24.0863 79.347 23.9629 79.429 23.8021C79.49 23.6824 79.5288 23.5371 79.5443 23.3663L79.5521 23.187V22.5164L79.7197 22.3755H82.0442L82.2118 22.5164L82.2116 23.3648L82.1999 23.6205C82.1681 23.9657 82.0726 24.2964 81.9136 24.6119C81.7158 25.0044 81.4425 25.354 81.0942 25.6602C80.7452 25.9669 80.3366 26.2104 79.8692 26.3902C79.3989 26.5712 78.8927 26.6617 78.3524 26.6617C77.8969 26.6617 77.4343 26.6089 76.9646 26.5036C76.4853 26.3962 76.0532 26.2078 75.6699 25.9393C75.2867 25.6708 74.9722 25.3261 74.7267 24.9065C74.5142 24.5434 74.3938 24.0985 74.3637 23.572L74.3562 23.302L74.3563 15.7865L74.3676 15.517C74.398 15.1553 74.4893 14.814 74.6417 14.4937C74.8323 14.0929 75.1032 13.7447 75.4536 13.4501C75.8038 13.1557 76.2213 12.925 76.705 12.7583C77.1891 12.5915 77.7235 12.5083 78.3068 12.5083ZM54.0559 12.6233L54.3375 12.6281C56.9837 12.7204 58.3221 14.1203 58.3221 16.7685C58.3221 17.5917 58.1698 18.2943 57.8633 18.8757C57.5862 19.4014 57.1238 19.8359 56.4799 20.1783L56.3515 20.2409L58.8146 26.3607L58.6559 26.5467H56.1947L56.0347 26.4478L53.905 20.7222H52.8071V26.4058L52.6396 26.5467H50.3151L50.1475 26.4058V12.7641L50.3151 12.6233H54.0559ZM67.2165 12.6233L67.3801 12.7334L71.0035 26.3751L70.84 26.5467H68.5155L68.3511 26.4329L67.6938 23.6153H64.8009L64.1449 26.4329L63.9805 26.5467H61.656L61.4925 26.3751L65.1159 12.7334L65.2795 12.6233H67.2165ZM93.5446 12.6233L93.7122 12.7641V14.6035L93.5446 14.7443H89.1088V18.467H92.9521L93.1197 18.6078V20.4472L92.9521 20.588H89.1088V24.3107H93.5446L93.7122 24.4515V26.4058L93.5446 26.5467H86.6168L86.4492 26.4058V12.7641L86.6168 12.6233H93.5446ZM66.2366 17.3309L65.2768 21.4931H67.1951L66.2366 17.3309ZM53.8474 14.7443H52.8071V18.716H53.9613C54.3489 18.716 54.6522 18.6716 54.8702 18.5857C55.0851 18.5009 55.2507 18.3812 55.3655 18.2314C55.4759 18.0689 55.5532 17.8653 55.5959 17.6199C55.6402 17.3653 55.6625 17.0686 55.6625 16.7302C55.6625 16.3918 55.6402 16.0951 55.5959 15.8405C55.5534 15.5963 55.4693 15.3873 55.3496 15.219C55.125 14.9408 54.7093 14.7822 54.0894 14.7503L53.8474 14.7443Z" fill="#CDD5D7"/>
<path fill-rule="evenodd" clip-rule="evenodd" d="M15.241 0C16.2123 0 16.9997 0.787361 16.9997 1.75862V4.10345C16.9997 5.07471 16.2123 5.86207 15.241 5.86207C14.2698 5.86207 13.4824 5.07471 13.4824 4.10345V1.75862C13.4824 0.787361 14.2698 0 15.241 0Z" fill="#CDD5D7"/>
<path d="M16.9997 9.96565C16.9997 8.99439 16.2123 8.20703 15.241 8.20703C14.2698 8.20703 13.4824 8.99439 13.4824 9.96565V27.5519C13.4824 28.5231 14.2698 29.3105 15.241 29.3105C16.2123 29.3105 16.9997 28.5231 16.9997 27.5519V9.96565Z" fill="#CDD5D7"/>
<path fill-rule="evenodd" clip-rule="evenodd" d="M26.1635 4.32215C26.8502 5.00893 26.8502 6.12243 26.1635 6.80921L24.3632 8.60949C23.6764 9.29628 22.5629 9.29628 21.8761 8.60949C21.1893 7.92271 21.1893 6.80921 21.8761 6.12243L23.6764 4.32215C24.3632 3.63536 25.4767 3.63536 26.1635 4.32215Z" fill="#CDD5D7"/>
<path fill-rule="evenodd" clip-rule="evenodd" d="M30.4834 15.2415C30.4834 16.2128 29.696 17.0002 28.7248 17.0002H26.38C25.4087 17.0002 24.6213 16.2128 24.6213 15.2415C24.6213 14.2703 25.4087 13.4829 26.38 13.4829H28.7248C29.696 13.4829 30.4834 14.2703 30.4834 15.2415Z" fill="#CDD5D7"/>
<path d="M20.5158 17.0002C21.4871 17.0002 22.2744 16.2128 22.2744 15.2415C22.2744 14.2703 21.4871 13.4829 20.5158 13.4829H9.96407C8.99281 13.4829 8.20545 14.2703 8.20545 15.2415C8.20545 16.2128 8.99281 17.0002 9.96407 17.0002H20.5158Z" fill="#CDD5D7"/>
<path fill-rule="evenodd" clip-rule="evenodd" d="M26.1627 26.161C25.4759 26.8478 24.3624 26.8478 23.6757 26.161L20.703 23.1883C20.0162 22.5015 20.0162 21.388 20.703 20.7013C21.3897 20.0145 22.5032 20.0145 23.19 20.7013L26.1627 23.6739C26.8495 24.3607 26.8495 25.4742 26.1627 26.161Z" fill="#CDD5D7"/>
<path d="M13.4842 32.2414C13.4842 33.2126 14.2716 34 15.2428 34C16.2141 34 17.0015 33.2126 17.0015 32.2414V26.3793C17.0015 25.4081 16.2141 24.6207 15.2428 24.6207C14.2716 24.6207 13.4842 25.4081 13.4842 26.3793V32.2414Z" fill="#CDD5D7"/>
<path fill-rule="evenodd" clip-rule="evenodd" d="M4.31994 26.1603C3.63316 25.4735 3.63316 24.36 4.31994 23.6732L7.29264 20.7005C7.97942 20.0137 9.09292 20.0137 9.7797 20.7005C10.4665 21.3873 10.4665 22.5008 9.7797 23.1876L6.80701 26.1603C6.12023 26.8471 5.00673 26.8471 4.31994 26.1603Z" fill="#CDD5D7"/>
<path fill-rule="evenodd" clip-rule="evenodd" d="M0 15.2419C0 14.2706 0.787361 13.4832 1.75862 13.4832H4.10345C5.07471 13.4832 5.86207 14.2706 5.86207 15.2419C5.86207 16.2131 5.07471 17.0005 4.10345 17.0005H1.75862C0.787361 17.0005 0 16.2131 0 15.2419Z" fill="#CDD5D7"/>
<path fill-rule="evenodd" clip-rule="evenodd" d="M4.32068 4.3219C5.00746 3.63511 6.12096 3.63511 6.80775 4.3219L8.60803 6.12218C9.29481 6.80896 9.29481 7.92246 8.60803 8.60924C7.92124 9.29603 6.80775 9.29603 6.12096 8.60924L4.32068 6.80896C3.6339 6.12218 3.6339 5.00868 4.32068 4.3219Z" fill="#CDD5D7"/>
</svg>
