<svg width="114" height="28" viewBox="0 0 114 28" fill="none" xmlns="http://www.w3.org/2000/svg">
<path d="M24.8898 6.7506C26.3439 8.97245 27.1316 11.5783 27.1316 14.2979C27.1316 21.8653 21.058 28 13.5658 28C6.07362 28 0 21.8653 0 14.2979C0 11.6375 0.753784 9.08528 2.14921 6.89404C2.67787 6.06389 3.77271 5.82378 4.59461 6.35775C5.41651 6.89173 5.65423 7.99757 5.12557 8.82773C4.09472 10.4465 3.53891 12.3284 3.53891 14.2979C3.53891 19.8912 8.0281 24.4255 13.5658 24.4255C19.1035 24.4255 23.5927 19.8912 23.5927 14.2979C23.5927 12.2846 23.0119 10.3632 21.9376 8.72167C21.3987 7.89824 21.6227 6.78948 22.438 6.24519C23.2532 5.70089 24.3509 5.92718 24.8898 6.7506ZM42.428 7.06553C43.6579 7.06553 44.7174 7.27821 45.6065 7.70357C46.4955 8.12894 47.1673 8.65557 47.6219 9.28349C48.0765 9.91141 48.3171 10.5292 48.3438 11.1369C48.3438 11.2584 48.3037 11.3597 48.2235 11.4407C48.1433 11.5217 48.0363 11.5622 47.9027 11.5622H45.797C45.6633 11.5622 45.563 11.5352 45.4962 11.4812C45.4293 11.4272 45.3692 11.3394 45.3157 11.2179C45.1285 10.7182 44.801 10.2929 44.3331 9.94179C43.8651 9.59069 43.2301 9.41515 42.428 9.41515C41.4921 9.41515 40.7602 9.66834 40.2321 10.1747C39.704 10.6811 39.4266 11.4677 39.3998 12.5345C39.3881 12.8771 39.3816 13.3749 39.3801 14.0277L39.3798 14.3169C39.3798 15.1001 39.3865 15.6943 39.3998 16.0994C39.4266 17.1932 39.7073 18 40.2421 18.5199C40.7769 19.0398 41.5122 19.2997 42.448 19.2997C43.3972 19.2997 44.1593 19.0432 44.7341 18.53C45.309 18.0169 45.5965 17.2472 45.5965 16.2209V15.593H43.1499C43.0162 15.593 42.9026 15.5458 42.809 15.4512C42.7154 15.3567 42.6686 15.2419 42.6686 15.1069V13.9929C42.6686 13.8578 42.7154 13.743 42.809 13.6485C42.9026 13.554 43.0162 13.5067 43.1499 13.5067H47.9628C48.1099 13.5067 48.2302 13.554 48.3238 13.6485C48.4174 13.743 48.4642 13.8578 48.4642 13.9929V16.1399C48.4642 17.2607 48.2168 18.2363 47.7222 19.0668C47.2275 19.8973 46.5256 20.5353 45.6165 20.9809C44.7074 21.4266 43.6446 21.6494 42.428 21.6494C40.583 21.6494 39.1492 21.17 38.1264 20.2112C37.1037 19.2525 36.5589 17.9156 36.492 16.2007C36.4816 15.8961 36.4753 15.4486 36.473 14.8581V13.7758C36.4753 13.1853 36.4816 12.7378 36.492 12.4332C36.5455 10.7587 37.0936 9.44554 38.1364 8.49353C39.1792 7.54153 40.6097 7.06553 42.428 7.06553ZM68.0768 7.06553C69.8415 7.06553 71.2486 7.5449 72.2981 8.50366C73.3476 9.46241 73.8991 10.8398 73.9525 12.6357C73.9793 13.419 73.9927 13.9996 73.9927 14.3777C73.9927 14.7423 73.9793 15.3162 73.9525 16.0994C73.8991 17.9359 73.361 19.32 72.3382 20.2517C71.3155 21.1835 69.895 21.6494 68.0768 21.6494C66.2452 21.6494 64.8214 21.1835 63.8053 20.2517C62.7893 19.32 62.2545 17.9359 62.201 16.0994C62.1893 15.7567 62.1827 15.2745 62.1813 14.6527L62.181 14.3777C62.181 13.608 62.1876 13.0273 62.201 12.6357C62.2545 10.8398 62.8026 9.46241 63.8454 8.50366C64.8882 7.5449 66.2987 7.06553 68.0768 7.06553ZM53.3773 7.26809C53.5244 7.26809 53.6414 7.31197 53.7283 7.39975C53.8152 7.48752 53.8586 7.60567 53.8586 7.75421V19.0162H60.2157C60.3628 19.0162 60.4831 19.0634 60.5767 19.158C60.6702 19.2525 60.717 19.3673 60.717 19.5023V20.9607C60.717 21.0957 60.6702 21.2105 60.5767 21.305C60.4831 21.3995 60.3628 21.4468 60.2157 21.4468H51.4923C51.3586 21.4468 51.2449 21.3995 51.1514 21.305C51.0578 21.2105 51.011 21.0957 51.011 20.9607V7.75421C51.011 7.60567 51.0578 7.48752 51.1514 7.39975C51.2449 7.31197 51.3586 7.26809 51.4923 7.26809H53.3773ZM82.8965 7.26809C84.4608 7.26809 85.6305 7.6158 86.406 8.31123C87.1814 9.00667 87.5691 9.95529 87.5691 11.1571C87.5691 11.8593 87.3986 12.4568 87.0577 12.9497C86.7168 13.4426 86.3191 13.797 85.8645 14.0131C86.426 14.2697 86.9006 14.6883 87.2883 15.2689C87.676 15.8496 87.8699 16.5113 87.8699 17.254C87.8699 18.5098 87.4488 19.5225 86.6065 20.2923C85.7642 21.062 84.5878 21.4468 83.077 21.4468H77.0809C76.9473 21.4468 76.8336 21.3995 76.74 21.305C76.6464 21.2105 76.5996 21.0957 76.5996 20.9607V7.77447C76.5996 7.62593 76.6431 7.5044 76.73 7.40987C76.8169 7.31535 76.9339 7.26809 77.0809 7.26809H82.8965ZM96.874 7.26809C97.2216 7.26809 97.4623 7.43688 97.596 7.77447L102.409 20.8391L102.449 21.0214C102.449 21.143 102.406 21.2443 102.319 21.3253C102.232 21.4063 102.135 21.4468 102.028 21.4468H100.243C99.9623 21.4468 99.7685 21.3185 99.6615 21.062L98.7391 18.6111H92.8031L91.8807 21.062C91.7737 21.3185 91.5798 21.4468 91.2991 21.4468H89.5143C89.394 21.4468 89.2937 21.4063 89.2135 21.3253C89.1333 21.2443 89.0932 21.143 89.0932 21.0214L89.1333 20.8391L93.9462 7.77447C94.0799 7.43688 94.3205 7.26809 94.6681 7.26809H96.874ZM106.66 7.26809C106.807 7.26809 106.924 7.31197 107.011 7.39975C107.098 7.48752 107.142 7.60567 107.142 7.75421V19.0162H113.499C113.646 19.0162 113.766 19.0634 113.86 19.158C113.953 19.2525 114 19.3673 114 19.5023V20.9607C114 21.0957 113.953 21.2105 113.86 21.305C113.766 21.3995 113.646 21.4468 113.499 21.4468H104.775C104.642 21.4468 104.528 21.3995 104.434 21.305C104.341 21.2105 104.294 21.0957 104.294 20.9607V7.75421C104.294 7.60567 104.341 7.48752 104.434 7.39975C104.528 7.31197 104.642 7.26809 104.775 7.26809H106.66ZM68.0768 9.41515C67.1944 9.41515 66.4858 9.68859 65.9511 10.2355C65.4163 10.7824 65.1356 11.6095 65.1088 12.7168C65.0974 13.0524 65.0908 13.5022 65.0892 14.066L65.0888 14.3574C65.0888 15.0461 65.0954 15.593 65.1088 15.9981C65.1356 17.1054 65.413 17.9325 65.941 18.4794C66.4691 19.0263 67.181 19.2997 68.0768 19.2997C68.9725 19.2997 69.6811 19.0297 70.2025 18.4895C70.7239 17.9494 71.0046 17.1189 71.0447 15.9981C71.0715 15.1879 71.0848 14.641 71.0848 14.3574C71.0848 14.0469 71.0715 13.5 71.0447 12.7168C71.0046 11.6095 70.7172 10.7824 70.1824 10.2355C69.6477 9.68859 68.9458 9.41515 68.0768 9.41515ZM82.7361 15.1879H79.4272V19.2795H82.7361C83.4313 19.2795 83.9728 19.0871 84.3605 18.7022C84.7482 18.3174 84.942 17.8279 84.942 17.2337C84.942 16.6395 84.7448 16.15 84.3504 15.7652C83.9561 15.3803 83.4179 15.1879 82.7361 15.1879ZM13.5658 0C16.8233 0 19.464 2.66724 19.464 5.95745C19.464 8.15092 17.4979 11.7341 13.5658 16.7071C9.63369 11.7341 7.66763 8.15092 7.66763 5.95745C7.66763 2.66724 10.3083 0 13.5658 0ZM95.7711 10.0228L93.505 16.2614H98.0372L95.7711 10.0228ZM82.5356 9.4354H79.4272V13.0814H82.5356C83.2174 13.0814 83.7421 12.9126 84.1098 12.575C84.4775 12.2374 84.6613 11.785 84.6613 11.2179C84.6613 10.6507 84.4808 10.2119 84.1198 9.90128C83.7589 9.59069 83.2308 9.4354 82.5356 9.4354Z" fill="#CDD5D7"/>
</svg>
