<svg width="89" height="25" viewBox="0 0 89 25" fill="none" xmlns="http://www.w3.org/2000/svg">
<path d="M15.5404 0C17.776 0 19.7049 0.392562 21.3271 1.17769C22.9493 1.96281 24.2035 3.07163 25.0895 4.50413C25.9756 5.93664 26.4186 7.63085 26.4186 9.58678C26.4186 11.6253 26.0097 13.5675 25.1918 15.4132C24.3739 17.259 23.256 18.905 21.8383 20.3512C20.4206 21.7975 18.8052 22.9339 16.9922 23.7603C15.1791 24.5868 13.2638 25 11.2463 25C8.98343 25 7.0068 24.5799 5.31644 23.7397C3.62609 22.8995 2.31742 21.7355 1.39045 20.2479C0.463485 18.7603 0 17.011 0 15C0 12.9339 0.408957 10.9986 1.22687 9.19421C2.04479 7.38981 3.16942 5.7989 4.60077 4.42149C6.03212 3.04408 7.68158 1.96281 9.54915 1.17769C11.4167 0.392562 13.4138 0 15.5404 0ZM14.7634 2.97521C13.4002 2.97521 12.1392 3.50551 10.9805 4.56612C9.82179 5.62672 8.90164 7.06612 8.22004 8.8843C7.53845 10.7025 7.19765 12.7273 7.19765 14.9587C7.19765 17.0248 7.62705 18.6501 8.48586 19.8347C9.34467 21.0193 10.4966 21.6116 11.9416 21.6116C13.332 21.6116 14.5793 21.0813 15.6835 20.0207C16.7877 18.9601 17.667 17.5138 18.3213 15.6818C18.9756 13.8499 19.3028 11.8044 19.3028 9.54545C19.3028 7.36915 18.9075 5.73003 18.1168 4.6281C17.3262 3.52617 16.2083 2.97521 14.7634 2.97521ZM42.965 6.29201C44.2646 6.29201 45.4092 6.57484 46.3989 7.1405C47.3886 7.70615 48.1584 8.49403 48.7082 9.50413C49.258 10.5142 49.5329 11.6758 49.5329 12.989C49.5329 14.3021 49.233 15.489 48.6332 16.5496C48.0334 17.6102 47.2287 18.4486 46.219 19.0647C45.2093 19.6809 44.0847 19.989 42.8451 19.989C41.4855 19.989 40.2909 19.7011 39.2613 19.1253C38.2316 18.5496 37.4269 17.7516 36.847 16.7314C36.2672 15.7112 35.9773 14.5445 35.9773 13.2314C35.9773 11.7971 36.3022 10.5597 36.952 9.51928C37.6018 8.47888 38.4615 7.6809 39.5312 7.12534C40.6008 6.56979 41.7454 6.29201 42.965 6.29201ZM69.5064 6.29201C70.1262 6.29201 70.756 6.34757 71.3958 6.45868C72.0355 6.56979 72.5654 6.72635 72.9852 6.92837L73.3151 10.3223H71.5457L70.8559 8.2011L70.6985 8.11493C70.5335 8.03349 70.3461 7.96625 70.1362 7.91322C69.8563 7.84252 69.5763 7.80716 69.2964 7.80716C68.6567 7.80716 68.1468 7.95363 67.7669 8.24656C67.3871 8.53949 67.1971 8.91827 67.1971 9.38292C67.1971 9.88797 67.4221 10.3122 67.8719 10.6556C68.3218 10.9991 69.1265 11.4233 70.2861 11.9284C71.6057 12.494 72.5404 13.0799 73.0902 13.686C73.64 14.292 73.9149 15.0395 73.9149 15.9284C73.9149 17.1405 73.3851 18.1203 72.3255 18.8678C71.2658 19.6152 69.9062 19.989 68.2468 19.989C67.447 19.989 66.6473 19.8981 65.8476 19.7163C65.0478 19.5344 64.3781 19.292 63.8382 18.989L63.6883 15.5344H65.4577L66.0875 17.7163L66.3607 17.8796C67.0058 18.2354 67.7045 18.4132 68.4567 18.4132C69.0965 18.4132 69.5963 18.2718 69.9562 17.989C70.3161 17.7062 70.496 17.3324 70.496 16.8678C70.496 16.3829 70.3161 15.9688 69.9562 15.6253C69.5963 15.2819 68.8666 14.8981 67.7669 14.4738C66.3074 13.9082 65.2878 13.3122 64.7079 12.686C64.1281 12.0597 63.8382 11.2718 63.8382 10.3223C63.8382 9.53444 64.0781 8.83747 64.558 8.23141C65.0378 7.62534 65.7026 7.1506 66.5523 6.80716C67.4021 6.46373 68.3867 6.29201 69.5064 6.29201ZM81.3825 6.29201C83.0819 6.29201 84.4265 6.69605 85.4162 7.50413C86.4059 8.31221 86.9107 9.39302 86.9307 10.7466L86.8407 15.2011L86.8425 15.5047C86.8473 15.8942 86.8617 16.2223 86.8857 16.489C86.9157 16.8223 86.9707 17.09 87.0506 17.292L89 17.6556V18.8072L87.2306 19.5647L86.899 19.6944C86.6835 19.7729 86.4792 19.8358 86.2859 19.8829C85.996 19.9536 85.7311 19.989 85.4911 19.989L85.3003 19.9795C84.6823 19.916 84.2461 19.5354 83.9916 18.8375L83.7279 18.0625L83.5779 18.2252C83.1311 18.6911 82.6792 19.072 82.2222 19.3678C81.5824 19.7819 80.9526 19.989 80.3328 19.989C79.4331 19.989 78.6584 19.7971 78.0086 19.4132C77.3588 19.0294 76.864 18.5647 76.5241 18.0193C76.1842 17.4738 76.0142 16.9486 76.0142 16.4435C76.0142 15.7365 76.2342 15.1455 76.674 14.6708C77.1139 14.1961 77.8137 13.8072 78.7733 13.5041L83.4518 12.0496V10.8072L83.4402 10.5875C83.4013 10.2255 83.2652 9.8846 83.032 9.56474C82.752 9.1809 82.3822 8.86777 81.9223 8.62534C81.4625 8.38292 80.9626 8.26171 80.4228 8.26171C80.0429 8.26171 79.778 8.34757 79.6281 8.51928C79.4781 8.691 79.3831 9.02938 79.3432 9.53444L79.2232 11.1708L78.8931 11.2359C78.1397 11.363 77.505 11.316 76.9889 11.095C76.3991 10.8425 76.1042 10.4233 76.1042 9.83747C76.1042 9.47383 76.2842 9.10009 76.644 8.71625C77.0039 8.33242 77.4588 7.96878 78.0086 7.62534C78.5584 7.28191 79.1332 6.98898 79.733 6.74656C80.3328 6.50413 80.8827 6.35262 81.3825 6.29201ZM55.8908 6.35262L56.5806 6.83747L56.4606 9.26171L56.5506 9.29201L56.7248 8.96353C57.2485 8.0108 57.7802 7.35262 58.32 6.98898C58.9198 6.58494 59.5196 6.38292 60.1194 6.38292C60.6393 6.38292 61.0841 6.52433 61.454 6.80716C61.8239 7.08999 62.0088 7.52433 62.0088 8.11019C62.0088 8.69605 61.8089 9.1506 61.409 9.47383C61.0092 9.79706 60.5293 9.95868 59.9695 9.95868C59.5296 9.95868 59.1248 9.87787 58.7549 9.71625L58.5312 9.60595C58.3808 9.52353 58.2281 9.42332 58.0729 9.30534L58.0237 9.26678L57.8777 9.40186C57.7227 9.5559 57.5703 9.72635 57.4203 9.91322C57.1204 10.287 56.8505 10.7264 56.6106 11.2314L56.6406 13.7466L56.6556 14.238C56.6706 14.721 56.6856 15.1784 56.7006 15.6102C56.7206 16.186 56.7405 16.6809 56.7605 17.095C56.7805 17.5092 56.8005 17.7971 56.8205 17.9587L59.4297 18.3829L59.3397 19.7466H51.3023L51.2124 18.4435L53.0717 17.9587L53.0837 17.8993C53.0997 17.8055 53.1157 17.6536 53.1317 17.4435C53.1517 17.1809 53.1717 16.8324 53.1917 16.3981C53.2117 15.9637 53.2217 15.4536 53.2217 14.8678L53.2517 12.5647L53.2479 12.1036C53.2404 11.6509 53.2217 11.2238 53.1917 10.8223C53.1517 10.287 53.0817 9.78696 52.9818 9.32231L51.0624 8.89807V7.65565L55.8908 6.35262ZM42.5452 7.95868C41.6855 7.95868 41.0007 8.37282 40.4909 9.2011C39.981 10.0294 39.7261 11.1304 39.7261 12.5041C39.7261 13.595 39.8761 14.5748 40.176 15.4435C40.4759 16.3122 40.8807 16.994 41.3906 17.489C41.9004 17.9839 42.4852 18.2314 43.145 18.2314C43.7048 18.2314 44.1847 18.0546 44.5845 17.7011C44.9844 17.3476 45.2943 16.8375 45.5142 16.1708C45.7341 15.5041 45.8441 14.7264 45.8441 13.8375C45.8441 12.1001 45.5442 10.686 44.9444 9.59504C44.3446 8.50413 43.5449 7.95868 42.5452 7.95868ZM83.4518 13.6556L80.9926 14.2011L80.7639 14.2575C80.4016 14.3613 80.1329 14.5142 79.958 14.7163C79.748 14.9587 79.6431 15.2819 79.6431 15.686C79.6431 16.1708 79.838 16.6001 80.2279 16.9738C80.6177 17.3476 81.0826 17.5344 81.6224 17.5344C81.9623 17.5344 82.2872 17.4688 82.5971 17.3375C82.907 17.2062 83.1919 16.989 83.4518 16.686V13.6556Z" fill="#CDD5D7"/>
</svg>
